<?xml version="1.0" standalone="no"?>
<!DOCTYPE svg PUBLIC "-//W3C//DTD SVG 20010904//EN"
 "http://www.w3.org/TR/2001/REC-SVG-20010904/DTD/svg10.dtd">
<svg version="1.0" xmlns="http://www.w3.org/2000/svg"
 width="1024.000000pt" height="1024.000000pt" viewBox="0 0 1024.000000 1024.000000"
 preserveAspectRatio="xMidYMid meet">
<metadata>
Created by potrace 1.14, written by Peter Selinger 2001-2017
</metadata>
<g transform="translate(0.000000,1024.000000) scale(0.100000,-0.100000)"
fill="#000000" stroke="none">
<path d="M844 8810 c-118 -31 -226 -95 -294 -174 -14 -16 -33 -37 -42 -47 -10
-11 -18 -21 -18 -24 0 -2 -13 -26 -28 -52 -27 -47 -41 -84 -63 -172 -7 -31
-10 -948 -10 -3180 0 -2699 2 -3143 15 -3189 8 -29 15 -55 15 -57 10 -39 52
-124 74 -149 17 -20 21 -32 17 -51 -1 -5 1 -7 5 -3 4 4 29 -15 56 -42 55 -55
144 -111 204 -130 22 -7 45 -16 50 -19 6 -4 24 -8 40 -10 27 -2 61 -7 75 -11
18 -5 8370 -1 8378 4 6 3 14 2 17 -4 4 -7 11 -8 18 -2 11 9 88 26 102 22 3 0
13 6 21 15 9 8 22 15 29 15 32 0 166 95 209 149 11 13 29 33 41 45 11 11 21
23 22 26 4 19 37 78 43 75 3 -2 6 4 7 13 0 9 10 53 22 97 l21 80 0 2855 c0
1570 -2 2872 -5 2893 -20 148 -133 306 -266 371 -123 60 90 56 -3009 56 -1565
1 -2863 5 -2885 9 -112 24 -225 106 -360 265 -35 41 -155 163 -188 191 -73 62
-167 108 -271 135 -75 19 -111 20 -1024 19 -894 0 -951 -1 -1018 -19z"/>
<path d="M9506 1518 c3 -5 10 -6 15 -3 13 9 11 12 -6 12 -8 0 -12 -4 -9 -9z"/>
<path d="M1273 1465 c0 -8 4 -12 9 -9 5 3 6 10 3 15 -9 13 -12 11 -12 -6z"/>
<path d="M3515 1451 c-3 -5 -2 -12 3 -15 5 -3 9 1 9 9 0 17 -3 19 -12 6z"/>
<path d="M1425 1440 c-3 -6 1 -7 9 -4 18 7 21 14 7 14 -6 0 -13 -4 -16 -10z"/>
<path d="M1820 1446 c0 -2 8 -10 18 -17 15 -13 16 -12 3 4 -13 16 -21 21 -21
13z"/>
<path d="M2385 1440 c-3 -6 1 -7 9 -4 18 7 21 14 7 14 -6 0 -13 -4 -16 -10z"/>
<path d="M2780 1446 c0 -2 8 -10 18 -17 15 -13 16 -12 3 4 -13 16 -21 21 -21
13z"/>
<path d="M3345 1440 c-3 -6 1 -7 9 -4 18 7 21 14 7 14 -6 0 -13 -4 -16 -10z"/>
<path d="M5585 1440 c-3 -6 1 -7 9 -4 18 7 21 14 7 14 -6 0 -13 -4 -16 -10z"/>
<path d="M5980 1446 c0 -2 8 -10 18 -17 15 -13 16 -12 3 4 -13 16 -21 21 -21
13z"/>
<path d="M6316 1438 c3 -5 10 -6 15 -3 13 9 11 12 -6 12 -8 0 -12 -4 -9 -9z"/>
<path d="M6865 1440 c-3 -6 1 -7 9 -4 18 7 21 14 7 14 -6 0 -13 -4 -16 -10z"/>
<path d="M7260 1446 c0 -2 8 -10 18 -17 15 -13 16 -12 3 4 -13 16 -21 21 -21
13z"/>
<path d="M1595 1411 c-3 -5 -2 -12 3 -15 5 -3 9 1 9 9 0 17 -3 19 -12 6z"/>
<path d="M2555 1411 c-3 -5 -2 -12 3 -15 5 -3 9 1 9 9 0 17 -3 19 -12 6z"/>
<path d="M5755 1411 c-3 -5 -2 -12 3 -15 5 -3 9 1 9 9 0 17 -3 19 -12 6z"/>
<path d="M7035 1411 c-3 -5 -2 -12 3 -15 5 -3 9 1 9 9 0 17 -3 19 -12 6z"/>
</g>
</svg>
